<?xml version="1.0" standalone="no"?>
<!DOCTYPE svg PUBLIC "-//W3C//DTD SVG 20010904//EN"
 "http://www.w3.org/TR/2001/REC-SVG-20010904/DTD/svg10.dtd">
<svg version="1.0" xmlns="http://www.w3.org/2000/svg"
 width="275.000000pt" height="183.000000pt" viewBox="0 0 275.000000 183.000000"
 preserveAspectRatio="xMidYMid meet">
<metadata>
Created by potrace 1.16, written by Peter Selinger 2001-2019
</metadata>
<g transform="translate(0.000000,183.000000) scale(0.100000,-0.100000)"
fill="#000000" stroke="none">
<path d="M1624 918 c10 -47 54 -300 67 -383 15 -101 47 -268 55 -288 11 -30
23 -18 17 19 l-6 35 54 -3 c53 -3 54 -4 57 -35 2 -18 9 -33 16 -33 9 0 0 78
-38 300 -28 166 -55 301 -59 300 -4 0 -7 -3 -8 -7 -2 -14 12 -103 18 -120 5
-13 2 -15 -11 -10 -10 4 -26 2 -36 -3 -13 -7 -21 -7 -25 1 -4 6 -13 8 -21 5
-16 -6 -30 35 -20 59 3 8 1 15 -4 15 -13 0 -13 67 0 75 15 9 12 25 -5 25 -8 0
-15 9 -15 21 0 26 -18 59 -32 59 -7 0 -8 -12 -4 -32z"/>
</g>
</svg>
